<?xml version="1.0" encoding="UTF-8"?>
<svg version="1.1" xmlns="http://www.w3.org/2000/svg" width="128" height="128">
<path d="M0 0 C33 0 66 0 100 0 C100 9.24 100 18.48 100 28 C103.96 28 107.92 28 112 28 C112 31.96 112 35.92 112 40 C110.02 40 108.04 40 106 40 C106 67.72 106 95.44 106 124 C69.04 124 32.08 124 -6 124 C-6 96.28 -6 68.56 -6 40 C-7.98 40 -9.96 40 -12 40 C-12 36.04 -12 32.08 -12 28 C-8.04 28 -4.08 28 0 28 C0 18.76 0 9.52 0 0 Z " fill="#000000" transform="translate(14,2)"/>
<path d="M0 0 C34.32 0 68.64 0 104 0 C104 26.4 104 52.8 104 80 C95.42 80 86.84 80 78 80 C77.505 76.535 77.505 76.535 77 73 C75.515 72.505 75.515 72.505 74 72 C73.67 57.81 73.34 43.62 73 29 C59.14 29 45.28 29 31 29 C30.67 43.19 30.34 57.38 30 72 C28.515 72.495 28.515 72.495 27 73 C26.67 75.31 26.34 77.62 26 80 C17.42 80 8.84 80 0 80 C0 53.6 0 27.2 0 0 Z " fill="#F8D165" transform="translate(12,42)"/>
<path d="M0 0 C30.36 0 60.72 0 92 0 C92 7.92 92 15.84 92 24 C61.64 24 31.28 24 0 24 C0 16.08 0 8.16 0 0 Z " fill="#EFAD42" transform="translate(18,6)"/>
<path d="M0 0 C5.28 0 10.56 0 16 0 C16 13.2 16 26.4 16 40 C10.72 40 5.44 40 0 40 C0 26.8 0 13.6 0 0 Z " fill="#FFF0C2" transform="translate(66,74)"/>
<path d="M0 0 C5.28 0 10.56 0 16 0 C16 13.2 16 26.4 16 40 C10.72 40 5.44 40 0 40 C0 26.8 0 13.6 0 0 Z " fill="#FCE797" transform="translate(46,74)"/>
<path d="M0 0 C38.28 0 76.56 0 116 0 C116 1.32 116 2.64 116 4 C77.72 4 39.44 4 0 4 C0 2.68 0 1.36 0 0 Z " fill="#D5883E" transform="translate(6,34)"/>
<path d="M0 0 C1.27875 0.00257812 2.5575 0.00515625 3.875 0.0078125 C5.15375 0.00523438 6.4325 0.00265625 7.75 0 C10.875 0.1328125 10.875 0.1328125 11.875 1.1328125 C11.97409302 3.46441305 12.00470504 5.79911192 12 8.1328125 C12.00386719 10.0509375 12.00386719 10.0509375 12.0078125 12.0078125 C11.875 15.1328125 11.875 15.1328125 10.875 16.1328125 C8.54339945 16.23190552 6.20870058 16.26251754 3.875 16.2578125 C2.59625 16.26039062 1.3175 16.26296875 0 16.265625 C-3.125 16.1328125 -3.125 16.1328125 -4.125 15.1328125 C-4.22409302 12.80121195 -4.25470504 10.46651308 -4.25 8.1328125 C-4.25257812 6.8540625 -4.25515625 5.5753125 -4.2578125 4.2578125 C-4.08423261 0.17357989 -4.08423261 0.17357989 0 0 Z " fill="#010000" transform="translate(100.125,85.8671875)"/>
<path d="M0 0 C1.27875 0.00257812 2.5575 0.00515625 3.875 0.0078125 C5.15375 0.00523438 6.4325 0.00265625 7.75 0 C10.875 0.1328125 10.875 0.1328125 11.875 1.1328125 C11.97409302 3.46441305 12.00470504 5.79911192 12 8.1328125 C12.00386719 10.0509375 12.00386719 10.0509375 12.0078125 12.0078125 C11.875 15.1328125 11.875 15.1328125 10.875 16.1328125 C8.54339945 16.23190552 6.20870058 16.26251754 3.875 16.2578125 C2.59625 16.26039062 1.3175 16.26296875 0 16.265625 C-3.125 16.1328125 -3.125 16.1328125 -4.125 15.1328125 C-4.22409302 12.80121195 -4.25470504 10.46651308 -4.25 8.1328125 C-4.25257812 6.8540625 -4.25515625 5.5753125 -4.2578125 4.2578125 C-4.08423261 0.17357989 -4.08423261 0.17357989 0 0 Z " fill="#010000" transform="translate(20.125,85.8671875)"/>
<path d="M0 0 C1.27875 0.00257812 2.5575 0.00515625 3.875 0.0078125 C5.15375 0.00523438 6.4325 0.00265625 7.75 0 C10.875 0.1328125 10.875 0.1328125 11.875 1.1328125 C11.97409302 3.46441305 12.00470504 5.79911192 12 8.1328125 C12.00386719 10.0509375 12.00386719 10.0509375 12.0078125 12.0078125 C11.875 15.1328125 11.875 15.1328125 10.875 16.1328125 C8.54339945 16.23190552 6.20870058 16.26251754 3.875 16.2578125 C2.59625 16.26039062 1.3175 16.26296875 0 16.265625 C-3.125 16.1328125 -3.125 16.1328125 -4.125 15.1328125 C-4.22409302 12.80121195 -4.25470504 10.46651308 -4.25 8.1328125 C-4.25257812 6.8540625 -4.25515625 5.5753125 -4.2578125 4.2578125 C-4.08423261 0.17357989 -4.08423261 0.17357989 0 0 Z " fill="#010000" transform="translate(100.125,65.8671875)"/>
<path d="M0 0 C1.27875 0.00257812 2.5575 0.00515625 3.875 0.0078125 C5.15375 0.00523438 6.4325 0.00265625 7.75 0 C10.875 0.1328125 10.875 0.1328125 11.875 1.1328125 C11.97409302 3.46441305 12.00470504 5.79911192 12 8.1328125 C12.00386719 10.0509375 12.00386719 10.0509375 12.0078125 12.0078125 C11.875 15.1328125 11.875 15.1328125 10.875 16.1328125 C8.54339945 16.23190552 6.20870058 16.26251754 3.875 16.2578125 C2.59625 16.26039062 1.3175 16.26296875 0 16.265625 C-3.125 16.1328125 -3.125 16.1328125 -4.125 15.1328125 C-4.22409302 12.80121195 -4.25470504 10.46651308 -4.25 8.1328125 C-4.25257812 6.8540625 -4.25515625 5.5753125 -4.2578125 4.2578125 C-4.08423261 0.17357989 -4.08423261 0.17357989 0 0 Z " fill="#010000" transform="translate(20.125,65.8671875)"/>
<path d="M0 0 C1.27875 0.00257812 2.5575 0.00515625 3.875 0.0078125 C5.15375 0.00523438 6.4325 0.00265625 7.75 0 C10.875 0.1328125 10.875 0.1328125 11.875 1.1328125 C11.97409302 3.46441305 12.00470504 5.79911192 12 8.1328125 C12.00386719 10.0509375 12.00386719 10.0509375 12.0078125 12.0078125 C11.875 15.1328125 11.875 15.1328125 10.875 16.1328125 C8.54339945 16.23190552 6.20870058 16.26251754 3.875 16.2578125 C2.59625 16.26039062 1.3175 16.26296875 0 16.265625 C-3.125 16.1328125 -3.125 16.1328125 -4.125 15.1328125 C-4.22409302 12.80121195 -4.25470504 10.46651308 -4.25 8.1328125 C-4.25257812 6.8540625 -4.25515625 5.5753125 -4.2578125 4.2578125 C-4.08423261 0.17357989 -4.08423261 0.17357989 0 0 Z " fill="#010000" transform="translate(100.125,45.8671875)"/>
<path d="M0 0 C1.27875 0.00257812 2.5575 0.00515625 3.875 0.0078125 C5.15375 0.00523438 6.4325 0.00265625 7.75 0 C10.875 0.1328125 10.875 0.1328125 11.875 1.1328125 C11.97409302 3.46441305 12.00470504 5.79911192 12 8.1328125 C12.00386719 10.0509375 12.00386719 10.0509375 12.0078125 12.0078125 C11.875 15.1328125 11.875 15.1328125 10.875 16.1328125 C8.54339945 16.23190552 6.20870058 16.26251754 3.875 16.2578125 C2.59625 16.26039062 1.3175 16.26296875 0 16.265625 C-3.125 16.1328125 -3.125 16.1328125 -4.125 15.1328125 C-4.22409302 12.80121195 -4.25470504 10.46651308 -4.25 8.1328125 C-4.25257812 6.8540625 -4.25515625 5.5753125 -4.2578125 4.2578125 C-4.08423261 0.17357989 -4.08423261 0.17357989 0 0 Z " fill="#010000" transform="translate(80.125,45.8671875)"/>
<path d="M0 0 C1.27875 0.00257812 2.5575 0.00515625 3.875 0.0078125 C5.15375 0.00523438 6.4325 0.00265625 7.75 0 C10.875 0.1328125 10.875 0.1328125 11.875 1.1328125 C11.97409302 3.46441305 12.00470504 5.79911192 12 8.1328125 C12.00386719 10.0509375 12.00386719 10.0509375 12.0078125 12.0078125 C11.875 15.1328125 11.875 15.1328125 10.875 16.1328125 C8.54339945 16.23190552 6.20870058 16.26251754 3.875 16.2578125 C2.59625 16.26039062 1.3175 16.26296875 0 16.265625 C-3.125 16.1328125 -3.125 16.1328125 -4.125 15.1328125 C-4.22409302 12.80121195 -4.25470504 10.46651308 -4.25 8.1328125 C-4.25257812 6.8540625 -4.25515625 5.5753125 -4.2578125 4.2578125 C-4.08423261 0.17357989 -4.08423261 0.17357989 0 0 Z " fill="#010000" transform="translate(60.125,45.8671875)"/>
<path d="M0 0 C1.27875 0.00257812 2.5575 0.00515625 3.875 0.0078125 C5.15375 0.00523438 6.4325 0.00265625 7.75 0 C10.875 0.1328125 10.875 0.1328125 11.875 1.1328125 C11.97409302 3.46441305 12.00470504 5.79911192 12 8.1328125 C12.00386719 10.0509375 12.00386719 10.0509375 12.0078125 12.0078125 C11.875 15.1328125 11.875 15.1328125 10.875 16.1328125 C8.54339945 16.23190552 6.20870058 16.26251754 3.875 16.2578125 C2.59625 16.26039062 1.3175 16.26296875 0 16.265625 C-3.125 16.1328125 -3.125 16.1328125 -4.125 15.1328125 C-4.22409302 12.80121195 -4.25470504 10.46651308 -4.25 8.1328125 C-4.25257812 6.8540625 -4.25515625 5.5753125 -4.2578125 4.2578125 C-4.08423261 0.17357989 -4.08423261 0.17357989 0 0 Z " fill="#010000" transform="translate(40.125,45.8671875)"/>
<path d="M0 0 C1.27875 0.00257812 2.5575 0.00515625 3.875 0.0078125 C5.15375 0.00523438 6.4325 0.00265625 7.75 0 C10.875 0.1328125 10.875 0.1328125 11.875 1.1328125 C11.97409302 3.46441305 12.00470504 5.79911192 12 8.1328125 C12.00386719 10.0509375 12.00386719 10.0509375 12.0078125 12.0078125 C11.875 15.1328125 11.875 15.1328125 10.875 16.1328125 C8.54339945 16.23190552 6.20870058 16.26251754 3.875 16.2578125 C2.59625 16.26039062 1.3175 16.26296875 0 16.265625 C-3.125 16.1328125 -3.125 16.1328125 -4.125 15.1328125 C-4.22409302 12.80121195 -4.25470504 10.46651308 -4.25 8.1328125 C-4.25257812 6.8540625 -4.25515625 5.5753125 -4.2578125 4.2578125 C-4.08423261 0.17357989 -4.08423261 0.17357989 0 0 Z " fill="#010000" transform="translate(20.125,45.8671875)"/>
<path d="M0 0 C0.9075 0.00257813 1.815 0.00515625 2.75 0.0078125 C4.11125 0.00394531 4.11125 0.00394531 5.5 0 C7.75 0.1328125 7.75 0.1328125 8.75 1.1328125 C8.8483721 2.46324875 8.88078592 3.79874594 8.8828125 5.1328125 C8.88474609 6.339375 8.88474609 6.339375 8.88671875 7.5703125 C8.88285156 8.4159375 8.87898438 9.2615625 8.875 10.1328125 C8.87886719 10.9784375 8.88273437 11.8240625 8.88671875 12.6953125 C8.88542969 13.4996875 8.88414063 14.3040625 8.8828125 15.1328125 C8.88168457 15.8753125 8.88055664 16.6178125 8.87939453 17.3828125 C8.75 19.1328125 8.75 19.1328125 7.75 20.1328125 C6.08570949 20.23105187 4.41718069 20.26254881 2.75 20.2578125 C1.38875 20.26167969 1.38875 20.26167969 0 20.265625 C-2.25 20.1328125 -2.25 20.1328125 -3.25 19.1328125 C-3.3483721 17.80237625 -3.38078592 16.46687906 -3.3828125 15.1328125 C-3.38410156 14.3284375 -3.38539062 13.5240625 -3.38671875 12.6953125 C-3.38285156 11.8496875 -3.37898438 11.0040625 -3.375 10.1328125 C-3.37886719 9.2871875 -3.38273437 8.4415625 -3.38671875 7.5703125 C-3.38542969 6.7659375 -3.38414063 5.9615625 -3.3828125 5.1328125 C-3.38168457 4.3903125 -3.38055664 3.6478125 -3.37939453 2.8828125 C-3.18002582 0.18644468 -2.6913337 0.15886345 0 0 Z " fill="#010101" transform="translate(41.25,7.8671875)"/>
<path d="M0 0 C0.9075 0.00257813 1.815 0.00515625 2.75 0.0078125 C4.11125 0.00394531 4.11125 0.00394531 5.5 0 C7.75 0.1328125 7.75 0.1328125 8.75 1.1328125 C8.79063832 2.79898365 8.792721 4.46669345 8.75 6.1328125 C7.43 6.1328125 6.11 6.1328125 4.75 6.1328125 C4.75 5.4728125 4.75 4.8128125 4.75 4.1328125 C3.43 4.1328125 2.11 4.1328125 0.75 4.1328125 C0.75 5.4528125 0.75 6.7728125 0.75 8.1328125 C2.4515625 8.101875 2.4515625 8.101875 4.1875 8.0703125 C7.75 8.1328125 7.75 8.1328125 8.75 9.1328125 C8.84823937 10.79710301 8.87973631 12.46563181 8.875 14.1328125 C8.87757812 15.0403125 8.88015625 15.9478125 8.8828125 16.8828125 C8.75 19.1328125 8.75 19.1328125 7.75 20.1328125 C6.08570949 20.23105187 4.41718069 20.26254881 2.75 20.2578125 C1.38875 20.26167969 1.38875 20.26167969 0 20.265625 C-2.25 20.1328125 -2.25 20.1328125 -3.25 19.1328125 C-3.29063832 17.46664135 -3.292721 15.79893155 -3.25 14.1328125 C-1.93 14.1328125 -0.61 14.1328125 0.75 14.1328125 C0.75 14.7928125 0.75 15.4528125 0.75 16.1328125 C2.07 16.1328125 3.39 16.1328125 4.75 16.1328125 C4.75 14.8128125 4.75 13.4928125 4.75 12.1328125 C3.0484375 12.16375 3.0484375 12.16375 1.3125 12.1953125 C-2.25 12.1328125 -2.25 12.1328125 -3.25 11.1328125 C-3.34823937 9.46852199 -3.37973631 7.79999319 -3.375 6.1328125 C-3.37757812 5.2253125 -3.38015625 4.3178125 -3.3828125 3.3828125 C-3.20347538 0.34463064 -3.03818186 0.17933712 0 0 Z " fill="#010101" transform="translate(55.25,7.8671875)"/>
<path d="M0 0 C1.32 0 2.64 0 4 0 C4 2.64 4 5.28 4 8 C5.98 8 7.96 8 10 8 C10 5.36 10 2.72 10 0 C11.32 0 12.64 0 14 0 C14 6.6 14 13.2 14 20 C12.68 20 11.36 20 10 20 C10 17.36 10 14.72 10 12 C8.02 12 6.04 12 4 12 C4 14.64 4 17.28 4 20 C2.68 20 1.36 20 0 20 C0 13.4 0 6.8 0 0 Z " fill="#000000" transform="translate(22,8)"/>
<path d="M0 0 C14.52 0 29.04 0 44 0 C44 1.32 44 2.64 44 4 C29.48 4 14.96 4 0 4 C0 2.68 0 1.36 0 0 Z " fill="#E39642" transform="translate(42,118)"/>
<path d="M0 0 C1.51400391 0.01740234 1.51400391 0.01740234 3.05859375 0.03515625 C4.07050781 0.04417969 5.08242187 0.05320312 6.125 0.0625 C7.29869141 0.07990234 7.29869141 0.07990234 8.49609375 0.09765625 C8.49609375 1.41765625 8.49609375 2.73765625 8.49609375 4.09765625 C5.85609375 4.09765625 3.21609375 4.09765625 0.49609375 4.09765625 C0.49609375 5.41765625 0.49609375 6.73765625 0.49609375 8.09765625 C3.13609375 8.09765625 5.77609375 8.09765625 8.49609375 8.09765625 C8.49609375 9.41765625 8.49609375 10.73765625 8.49609375 12.09765625 C5.85609375 12.09765625 3.21609375 12.09765625 0.49609375 12.09765625 C0.49609375 13.41765625 0.49609375 14.73765625 0.49609375 16.09765625 C3.13609375 16.09765625 5.77609375 16.09765625 8.49609375 16.09765625 C8.49609375 17.41765625 8.49609375 18.73765625 8.49609375 20.09765625 C6.68367323 20.12452904 4.87114142 20.1439934 3.05859375 20.16015625 C2.04925781 20.17175781 1.03992188 20.18335937 0 20.1953125 C-2.50390625 20.09765625 -2.50390625 20.09765625 -3.50390625 19.09765625 C-3.60227835 17.76722 -3.63469217 16.43172281 -3.63671875 15.09765625 C-3.63800781 14.29328125 -3.63929687 13.48890625 -3.640625 12.66015625 C-3.63675781 11.81453125 -3.63289063 10.96890625 -3.62890625 10.09765625 C-3.63277344 9.25203125 -3.63664062 8.40640625 -3.640625 7.53515625 C-3.63933594 6.73078125 -3.63804688 5.92640625 -3.63671875 5.09765625 C-3.63559082 4.35515625 -3.63446289 3.61265625 -3.63330078 2.84765625 C-3.42332879 0.00788411 -2.84774008 0.11106631 0 0 Z " fill="#000000" transform="translate(83.50390625,7.90234375)"/>
<path d="M0 0 C3.96 0 7.92 0 12 0 C12 1.32 12 2.64 12 4 C10.68 4 9.36 4 8 4 C8 9.28 8 14.56 8 20 C6.68 20 5.36 20 4 20 C4 14.72 4 9.44 4 4 C2.68 4 1.36 4 0 4 C0 2.68 0 1.36 0 0 Z " fill="#000000" transform="translate(66,8)"/>
<path d="M0 0 C1.32 0 2.64 0 4 0 C4 5.28 4 10.56 4 16 C6.64 16 9.28 16 12 16 C12 17.32 12 18.64 12 20 C10.18757948 20.02687279 8.37504767 20.04633715 6.5625 20.0625 C5.55316406 20.07410156 4.54382813 20.08570312 3.50390625 20.09765625 C1 20 1 20 0 19 C-0.08651611 17.58429877 -0.10704904 16.164405 -0.09765625 14.74609375 C-0.09443359 13.89208984 -0.09121094 13.03808594 -0.08789062 12.15820312 C-0.07951172 11.26037109 -0.07113281 10.36253906 -0.0625 9.4375 C-0.05798828 8.53580078 -0.05347656 7.63410156 -0.04882812 6.70507812 C-0.03700225 4.46998686 -0.0205222 2.23502563 0 0 Z " fill="#000000" transform="translate(94,8)"/>
<path d="M0 0 C2.64 0 5.28 0 8 0 C8 2.64 8 5.28 8 8 C5.36 8 2.72 8 0 8 C0 5.36 0 2.72 0 0 Z " fill="#FFFFFF" transform="translate(100,90)"/>
<path d="M0 0 C2.64 0 5.28 0 8 0 C8 2.64 8 5.28 8 8 C5.36 8 2.72 8 0 8 C0 5.36 0 2.72 0 0 Z " fill="#FFFFFF" transform="translate(20,90)"/>
<path d="M0 0 C2.64 0 5.28 0 8 0 C8 2.64 8 5.28 8 8 C5.36 8 2.72 8 0 8 C0 5.36 0 2.72 0 0 Z " fill="#FFFFFF" transform="translate(100,70)"/>
<path d="M0 0 C2.64 0 5.28 0 8 0 C8 2.64 8 5.28 8 8 C5.36 8 2.72 8 0 8 C0 5.36 0 2.72 0 0 Z " fill="#FFFFFF" transform="translate(20,70)"/>
<path d="M0 0 C2.64 0 5.28 0 8 0 C8 2.64 8 5.28 8 8 C5.36 8 2.72 8 0 8 C0 5.36 0 2.72 0 0 Z " fill="#FFFFFF" transform="translate(100,50)"/>
<path d="M0 0 C2.64 0 5.28 0 8 0 C8 2.64 8 5.28 8 8 C5.36 8 2.72 8 0 8 C0 5.36 0 2.72 0 0 Z " fill="#FFFFFF" transform="translate(80,50)"/>
<path d="M0 0 C2.64 0 5.28 0 8 0 C8 2.64 8 5.28 8 8 C5.36 8 2.72 8 0 8 C0 5.36 0 2.72 0 0 Z " fill="#FFFFFF" transform="translate(60,50)"/>
<path d="M0 0 C2.64 0 5.28 0 8 0 C8 2.64 8 5.28 8 8 C5.36 8 2.72 8 0 8 C0 5.36 0 2.72 0 0 Z " fill="#FFFFFF" transform="translate(40,50)"/>
<path d="M0 0 C2.64 0 5.28 0 8 0 C8 2.64 8 5.28 8 8 C5.36 8 2.72 8 0 8 C0 5.36 0 2.72 0 0 Z " fill="#FFFFFF" transform="translate(20,50)"/>
<path d="M0 0 C1.32 0 2.64 0 4 0 C4 3.96 4 7.92 4 12 C2.68 12 1.36 12 0 12 C0 8.04 0 4.08 0 0 Z " fill="#F0AE42" transform="translate(42,12)"/>
<path d="M0 0 C2.64 0 5.28 0 8 0 C8 2.64 8 5.28 8 8 C7.34 8 6.68 8 6 8 C6 6.02 6 4.04 6 2 C4.02 2 2.04 2 0 2 C0 1.34 0 0.68 0 0 Z " fill="#F2F2F2" transform="translate(100,90)"/>
<path d="M0 0 C2.64 0 5.28 0 8 0 C8 2.64 8 5.28 8 8 C7.34 8 6.68 8 6 8 C6 6.02 6 4.04 6 2 C4.02 2 2.04 2 0 2 C0 1.34 0 0.68 0 0 Z " fill="#F2F2F2" transform="translate(20,90)"/>
<path d="M0 0 C2.64 0 5.28 0 8 0 C8 2.64 8 5.28 8 8 C7.34 8 6.68 8 6 8 C6 6.02 6 4.04 6 2 C4.02 2 2.04 2 0 2 C0 1.34 0 0.68 0 0 Z " fill="#F2F2F2" transform="translate(100,70)"/>
<path d="M0 0 C2.64 0 5.28 0 8 0 C8 2.64 8 5.28 8 8 C7.34 8 6.68 8 6 8 C6 6.02 6 4.04 6 2 C4.02 2 2.04 2 0 2 C0 1.34 0 0.68 0 0 Z " fill="#F2F2F2" transform="translate(20,70)"/>
<path d="M0 0 C2.64 0 5.28 0 8 0 C8 2.64 8 5.28 8 8 C7.34 8 6.68 8 6 8 C6 6.02 6 4.04 6 2 C4.02 2 2.04 2 0 2 C0 1.34 0 0.68 0 0 Z " fill="#F2F2F2" transform="translate(100,50)"/>
<path d="M0 0 C2.64 0 5.28 0 8 0 C8 2.64 8 5.28 8 8 C7.34 8 6.68 8 6 8 C6 6.02 6 4.04 6 2 C4.02 2 2.04 2 0 2 C0 1.34 0 0.68 0 0 Z " fill="#F2F2F2" transform="translate(80,50)"/>
<path d="M0 0 C2.64 0 5.28 0 8 0 C8 2.64 8 5.28 8 8 C7.34 8 6.68 8 6 8 C6 6.02 6 4.04 6 2 C4.02 2 2.04 2 0 2 C0 1.34 0 0.68 0 0 Z " fill="#F2F2F2" transform="translate(60,50)"/>
<path d="M0 0 C2.64 0 5.28 0 8 0 C8 2.64 8 5.28 8 8 C7.34 8 6.68 8 6 8 C6 6.02 6 4.04 6 2 C4.02 2 2.04 2 0 2 C0 1.34 0 0.68 0 0 Z " fill="#F2F2F2" transform="translate(40,50)"/>
<path d="M0 0 C2.64 0 5.28 0 8 0 C8 2.64 8 5.28 8 8 C7.34 8 6.68 8 6 8 C6 6.02 6 4.04 6 2 C4.02 2 2.04 2 0 2 C0 1.34 0 0.68 0 0 Z " fill="#F2F2F2" transform="translate(20,50)"/>
</svg>
