<?xml version="1.0" encoding="UTF-8"?>
<svg version="1.1" xmlns="http://www.w3.org/2000/svg" width="64" height="64">
<path d="M0 0 C1.08152344 -0.02578125 2.16304687 -0.0515625 3.27734375 -0.078125 C4.19644531 0.03015625 5.11554687 0.1384375 6.0625 0.25 C8.0625 3.25 8.0625 3.25 7.6875 5.9375 C7.48125 6.700625 7.275 7.46375 7.0625 8.25 C6.0725 8.58 5.0825 8.91 4.0625 9.25 C4.0625 10.24 4.0625 11.23 4.0625 12.25 C4.84625 12.20875 5.63 12.1675 6.4375 12.125 C9.0625 12.25 9.0625 12.25 11.0625 14.25 C11.1875 16.875 11.1875 16.875 11.0625 19.25 C9.7425 19.25 8.4225 19.25 7.0625 19.25 C7.0625 18.59 7.0625 17.93 7.0625 17.25 C6.4025 17.58 5.7425 17.91 5.0625 18.25 C7.91544727 20.57034385 7.91544727 20.57034385 11.33203125 20.15234375 C15.51352076 19.14090493 18.38250932 17.36508191 21.75 14.8125 C27.93553263 10.26494813 31.8318146 7.69035677 39.64453125 7.875 C42.0625 8.25 42.0625 8.25 45.1875 10.3125 C47.47183517 13.89129177 47.47127691 16.08047551 47.0625 20.25 C50.0325 20.58 53.0025 20.91 56.0625 21.25 C57.49510548 30.56193562 57.64245265 39.94583439 56.0625 49.25 C55.0625 50.25 55.0625 50.25 53.19590759 50.37025452 C52.38094315 50.36803391 51.5659787 50.36581329 50.72631836 50.36352539 C49.34499977 50.36341209 49.34499977 50.36341209 47.93577576 50.36329651 C46.93474319 50.35813522 45.93371063 50.35297394 44.90234375 50.34765625 C43.88274063 50.3462413 42.86313751 50.34482635 41.81263733 50.34336853 C38.54172893 50.33775097 35.27088787 50.3251955 32 50.3125 C29.78841244 50.30748726 27.57682382 50.30292396 25.36523438 50.29882812 C19.93096643 50.28777584 14.49673803 50.27102063 9.0625 50.25 C8.753125 49.156875 8.44375 48.06375 8.125 46.9375 C7.47912103 44.69592006 6.8001883 42.4630649 6.0625 40.25 C5.64145865 34.56104596 5.82001488 29.57590217 8.0625 24.25 C7.0725 24.25 6.0825 24.25 5.0625 24.25 C4.7325 37.45 4.4025 50.65 4.0625 64.25 C1.4225 64.25 -1.2175 64.25 -3.9375 64.25 C-3.9375 46.1 -3.9375 27.95 -3.9375 9.25 C-4.9275 8.92 -5.9175 8.59 -6.9375 8.25 C-6.97991723 5.91705225 -6.97842937 3.58297433 -6.9375 1.25 C-5.12630181 -0.56119819 -2.43968608 0.03481122 0 0 Z M21.0625 20.25 C21.0625 20.58 21.0625 20.91 21.0625 21.25 C25.3525 21.25 29.6425 21.25 34.0625 21.25 C34.3925 18.94 34.7225 16.63 35.0625 14.25 C37.0425 13.92 39.0225 13.59 41.0625 13.25 C40.4025 12.59 39.7425 11.93 39.0625 11.25 C31.7295329 11.25 26.30175287 15.4036911 21.0625 20.25 Z M43.0625 15.25 C44.0625 18.25 44.0625 18.25 44.0625 18.25 Z M38.0625 17.25 C38.0625 18.24 38.0625 19.23 38.0625 20.25 C39.0525 20.58 40.0425 20.91 41.0625 21.25 C41.7225 20.92 42.3825 20.59 43.0625 20.25 C42.7325 19.59 42.4025 18.93 42.0625 18.25 C40.03786745 17.59786708 40.03786745 17.59786708 38.0625 17.25 Z " fill="#0D0B0C" transform="translate(6.9375,-0.25)"/>
<path d="M0 0 C13.86 0 27.72 0 42 0 C42.656021 3.936126 43.13755671 7.06375596 43.125 10.9375 C43.12886719 12.12666016 43.12886719 12.12666016 43.1328125 13.33984375 C42.97114607 16.57792718 42.45850453 19.79046827 42 23 C27.81 23 13.62 23 -1 23 C-2 7 -2 7 0 0 Z " fill="#F77676" transform="translate(18,24)"/>
<path d="M0 0 C0.33 0 0.66 0 1 0 C1.66 1.98 2.32 3.96 3 6 C3.763125 6 4.52625 6 5.3125 6 C8.54166667 6 11.77083333 6 15 6 C15 5.01 15 4.02 15 3 C14.34 2.34 13.68 1.68 13 1 C14.98 1 16.96 1 19 1 C19 2.98 19 4.96 19 7 C19.66 7 20.32 7 21 7 C21 5.02 21 3.04 21 1 C21.99 0.67 22.98 0.34 24 0 C24 2.31 24 4.62 24 7 C25.65 7 27.3 7 29 7 C29.33 6.01 29.66 5.02 30 4 C30 4.99 30 5.98 30 7 C31.65 7 33.3 7 35 7 C35 9.64 35 12.28 35 15 C20.81 15 6.62 15 -8 15 C-8 12.03 -8 9.06 -8 6 C-7.01 6.33 -6.02 6.66 -5 7 C-5 6.01 -5 5.02 -5 4 C-4.01 4 -3.02 4 -2 4 C-2 4.99 -2 5.98 -2 7 C-1.34 7 -0.68 7 0 7 C0 4.69 0 2.38 0 0 Z " fill="#ED7171" transform="translate(25,32)"/>
<path d="M0 0 C0.66 0 1.32 0 2 0 C2 17.82 2 35.64 2 54 C-0.475 54.495 -0.475 54.495 -3 55 C-2.125 50.125 -2.125 50.125 -1 49 C-0.8774645 47.46617321 -0.82222062 45.92689481 -0.79467773 44.38842773 C-0.77473251 43.40748642 -0.75478729 42.4265451 -0.73423767 41.4158783 C-0.71752518 40.3492244 -0.70081268 39.2825705 -0.68359375 38.18359375 C-0.66281265 37.0974025 -0.64203156 36.01121124 -0.62062073 34.8921051 C-0.55500558 31.40730373 -0.49618489 27.92242432 -0.4375 24.4375 C-0.39432615 22.08137199 -0.35071224 19.72525201 -0.30664062 17.36914062 C-0.19931208 11.57951063 -0.09756835 5.78980225 0 0 Z " fill="#B1C6D0" transform="translate(6,9)"/>
<path d="M0 0 C2.00720923 0.28674418 4.0085944 0.61866701 6 1 C6.04254356 2.99954746 6.04080783 5.00041636 6 7 C5 8 5 8 2.5625 8.1875 C0 8 0 8 -2 6 C-1.44444444 1.44444444 -1.44444444 1.44444444 0 0 Z " fill="#5A2B2B" transform="translate(28,31)"/>
<path d="M0 0 C0.33 0.99 0.66 1.98 1 3 C1.99 3 2.98 3 4 3 C4 2.01 4 1.02 4 0 C4.66 0 5.32 0 6 0 C6 2.64 6 5.28 6 8 C5.34 8 4.68 8 4 8 C4 7.01 4 6.02 4 5 C3.01 5 2.02 5 1 5 C0.67 5.99 0.34 6.98 0 8 C0 5.36 0 2.72 0 0 Z " fill="#130909" transform="translate(19,31)"/>
<path d="M0 0 C2.0625 0.4375 2.0625 0.4375 4 1 C4 3.62113708 3.68707555 5.50935112 3 8 C1.35 7.67 -0.3 7.34 -2 7 C-1.34 6.34 -0.68 5.68 0 5 C-0.40929986 2.94603274 -0.40929986 2.94603274 -1 1 C-0.67 0.67 -0.34 0.34 0 0 Z " fill="#1C0D0D" transform="translate(37,31)"/>
<path d="M0 0 C1.32 0 2.64 0 4 0 C4 2.64 4 5.28 4 8 C2.68 8 1.36 8 0 8 C0 5.36 0 2.72 0 0 Z " fill="#170B0B" transform="translate(49,31)"/>
<path d="M0 0 C2.64 0 5.28 0 8 0 C8 0.99 8 1.98 8 3 C5.36 3 2.72 3 0 3 C0 2.01 0 1.02 0 0 Z " fill="#9CA4BD" transform="translate(3,3)"/>
<path d="M0 0 C0.99 0 1.98 0 3 0 C3 2.64 3 5.28 3 8 C2.01 8 1.02 8 0 8 C0 5.36 0 2.72 0 0 Z " fill="#CB6161" transform="translate(16,31)"/>
<path d="M0 0 C0.66 0 1.32 0 2 0 C2 1.98 2 3.96 2 6 C2.66 6 3.32 6 4 6 C4 6.66 4 7.32 4 8 C2.68 8 1.36 8 0 8 C0 5.36 0 2.72 0 0 Z " fill="#1D0E0E" transform="translate(55,31)"/>
<path d="M0 0 C1.32 0 2.64 0 4 0 C3.67 2.64 3.34 5.28 3 8 C2.34 8 1.68 8 1 8 C0.67 5.36 0.34 2.72 0 0 Z " fill="#0F0707" transform="translate(43,31)"/>
</svg>
